<svg width="375" height="326" viewBox="0 0 375 326" fill="none" xmlns="http://www.w3.org/2000/svg">
<mask id="mask0" mask-type="alpha" maskUnits="userSpaceOnUse" x="0" y="0" width="375" height="326">
<rect width="375" height="326" fill="white"/>
</mask>
<g mask="url(#mask0)">
<path d="M362.59 52.48C359.49 52.48 356.58 53.27 354.05 54.64C349.53 44.32 338.99 37.09 326.71 37.09C311.38 37.09 298.77 48.36 297.18 62.83C294.87 61.75 292.31 61.13 289.6 61.13C282.25 61.13 275.95 65.55 273.17 71.87C269.35 70.44 265.21 69.64 260.87 69.64C255.57 69.64 250.56 70.81 246.08 72.9H224.88C220.48 67.31 213.66 63.72 206 63.72C198.34 63.72 191.52 67.31 187.12 72.9H180.37C180.39 72.42 180.41 71.93 180.41 71.44C180.41 55.52 167.11 42.61 150.71 42.61C148.42 42.61 146.2 42.87 144.07 43.34C144.1 42.93 144.13 42.51 144.13 42.09C144.13 32.67 136.26 25.04 126.56 25.04C118.93 25.04 112.45 29.77 110.03 36.38C107.49 35.23 104.75 34.43 101.88 34.02C101.67 15.2 85.9 0 66.46 0C48.69 0 33.99 12.7 31.44 29.26C29.06 28.09 26.38 27.42 23.53 27.42C15.51 27.42 8.76001 32.64 6.65001 39.77C1.91002 37.08 -3.18 35.26 -9 35V139H376V58C372.78 54.5 367.8 52.48 362.59 52.48Z" fill="#181818"/>
<path d="M275.481 95.9099H266.431V58.7999L252.621 54.2199V36.6699L244.491 29.5999H237.451L229.541 36.6699V83.0599H224.641V23.6499H201.431V99.2499H194.481V41.0999H171.271V87.6999H164.021V58.2299L145.171 70.6599V102.46H139.051V72.5299H133.871L131.801 65.0699H129.291C128.131 63.5299 126.121 62.5099 123.821 62.5099C121.521 62.5099 119.511 63.5299 118.351 65.0699H115.841L113.771 72.5299H108.591V100.51H102.831L97.3115 106.73V118.16L90.9315 114.81H88.9115C86.7415 114.81 84.9915 116.44 84.9915 118.44V130.97V152.34H268.671L275.491 141.05V95.9099H275.481Z" fill="#244959"/>
<path d="M-16.1985 74.26H31.7815C56.8815 74.26 80.6415 85.64 96.3715 105.19L103.891 114.54C107.711 119.29 113.481 122.05 119.581 122.05H134.281C143.561 122.05 152.351 126.23 158.211 133.42C160.001 135.61 162.671 136.88 165.501 136.88H203.611L212.401 184.38L-20.8685 181.12L-16.1985 74.26Z" fill="#212121"/>
<path d="M366.3 84.97C365.89 84.07 365.41 83.17 364.87 82.27C363.82 80.53 362.37 79.07 360.65 78.01C351.04 72.09 341.32 74 335.2 79.71C329.97 76.56 323.84 74.74 317.28 74.74C309.15 74.74 301.68 77.53 295.76 82.2L291.51 70.06C291.19 69.16 289.92 69.16 289.6 70.06L284.39 84.96H283.92L281.83 79C281.51 78.1 280.24 78.1 279.92 79L277.83 84.96H271.61C263.95 84.96 256.74 88.59 252.18 94.74C248.71 99.42 243.67 102.69 237.98 103.95L228.04 106.15C227.44 106.28 226.84 106.42 226.25 106.57C207.78 111.18 192.55 124.53 185 142L185 153H375V85L366.3 84.97Z" fill="#212121"/>
<path d="M375 189.045V98.9145C371.789 99.7719 368.906 101.377 366.537 103.521C361.171 100.38 354.883 98.5656 348.153 98.5656C336.325 98.5656 325.84 104.169 319.347 112.783C319.09 112.305 318.813 111.816 318.505 111.337C317.428 109.603 315.941 108.147 314.176 107.09C304.318 101.188 294.346 103.092 288.068 108.785C282.703 105.644 276.414 103.83 269.684 103.83C252.347 103.83 237.903 115.844 234.672 131.776C228.609 129.184 221.017 129.334 213.477 134.219C212.144 135.087 210.995 136.223 210.143 137.539C206.645 142.943 191.349 138.347 191.349 138.347H132.013C129.11 138.347 126.361 137.081 124.534 134.897C118.523 127.728 109.506 123.561 99.9855 123.561H84.9052C78.6474 123.561 72.7282 120.809 68.8093 116.073L61.0948 106.751C44.9477 87.2493 28.5748 74.1883 2.81529 74.1883H0.50709L-3.02189 64.3876C-3.38095 63.3806 -4.83768 63.3806 -5.20699 64.3876L-8.03839 72.2541L-15.6914 51.0175C-16.1633 49.7214 -18.0509 49.7214 -18.5228 51.0175L-20 55.1252V181.568L230.301 187.38L375 189.045Z" fill="#32343A"/>
<path d="M290.691 136.08H53.5215V139.86H290.691V136.08Z" fill="#5095A0"/>
<path d="M268.182 264.079C269.832 220.059 216.422 192.749 190.082 181.229C182.792 178.039 174.172 174.589 158.792 172.469C126.312 167.989 87.0119 166.759 83.0619 167.149L70.1819 178.649C142.022 178.649 151.402 225.129 128.652 239.509C87.5319 265.499 87.4019 267.139 34.7719 278.649C34.7719 279.199 14.2919 315.839 13.2219 328.329H240.432C254.092 309.139 268.182 264.079 268.182 264.079Z" fill="#212121"/>
<path d="M163.282 158.57C161.312 158.57 159.372 158.69 157.462 158.91C174.762 160.89 189.402 171.58 196.902 186.49H208.542C200.212 169.93 183.082 158.57 163.282 158.57Z" fill="#116A7D"/>
<path d="M59.3015 144.1V186.49H106.382H118.022C125.522 171.58 140.162 160.89 157.462 158.91C159.372 158.69 161.312 158.57 163.282 158.57C183.082 158.57 200.212 169.94 208.542 186.5H298.212V144.1H59.3015Z" fill="#5095A0"/>
<path d="M195.679 188.611C192.554 187.104 189.315 185.676 185.973 184.327C178.537 194.274 164.438 201.849 151.049 205.261C151.414 205.885 151.745 206.53 152.064 207.185C168.567 206.213 185.871 199.123 195.679 188.611Z" fill="#32343A"/>
<path d="M238.798 225.543H160.302C160.291 226.823 160.237 228.083 160.161 229.323H240.941C240.281 228.053 239.556 226.803 238.798 225.543Z" fill="#212121"/>
<path d="M195.844 188.168C186.536 198.778 167.511 206.02 151.849 207C155.554 210.5 160.038 215.908 160.103 221.408H235.828C226.888 208.568 213.206 197.048 195.844 188.168Z" fill="#42454C"/>
<path d="M210.611 188.91L225.341 170.08C230.821 163.66 238.431 159.44 246.781 158.2C246.851 158.19 246.911 158.18 246.981 158.17C256.131 156.75 264.081 151.09 268.811 143.13C273.421 135.39 288.901 124.36 299.661 121.84C311.961 118.96 375 118 375 118V255.5L266.065 251.997L210.611 188.91Z" fill="#42454C"/>
<path d="M147.132 171C204.572 180.15 247.222 218.042 247.222 256.442C247.222 296.342 211.892 326.002 157.282 335.952H246.292C268.412 319.002 274.702 296.102 274.702 270.892C274.682 219.372 217.572 172.24 147.132 171Z" fill="#212121"/>
<path d="M151.435 220.197C152.569 228 152.677 237.68 149.978 244.37L148.429 257.481L-24.2904 220.28V101.58H1.14432C10.708 102.24 19.8219 105.94 27.2147 112.14L31.4391 99.4002C31.7423 98.4802 33.0135 98.4802 33.3166 99.4002L42.0491 125.77L45.2957 115.99C45.5989 115.07 46.8701 115.07 47.1732 115.99L55.6515 140.86C64.1884 149.19 75.5416 153.86 87.3642 153.86C129.433 160.72 150.301 212.394 151.435 220.197Z" fill="#42454C"/>
<path d="M327.288 167.512C341.502 167.512 353.024 156.289 353.024 142.445C353.024 128.6 341.502 117.377 327.288 117.377C313.074 117.377 301.551 128.6 301.551 142.445C301.551 156.289 313.074 167.512 327.288 167.512Z" fill="#116A7D"/>
<path d="M329.198 176.884V164.684C329.232 164.643 329.265 164.6 329.296 164.555L340.205 149.007L337.052 146.909L329.198 158.102V138.991H325.379V147.388L317.162 139.908L314.557 142.617L325.349 152.441C325.359 152.45 325.369 152.459 325.379 152.468V179.008C320.91 181.701 316.755 184.963 313.025 188.748L301.621 200.318C296.786 205.224 290.204 207.984 283.337 207.984C275.963 207.984 268.943 211.164 264.056 216.719L243.508 240.074L255 326H441.802V194.031C441.802 168.358 419.968 146.664 396.903 157.937L385.227 163.644C376.656 167.833 367.251 170.009 357.722 170.009C347.714 170.009 337.954 172.407 329.198 176.884Z" fill="#212121"/>
<path d="M57.335 158.089C70.3293 158.089 80.8633 147.829 80.8633 135.172C80.8633 122.516 70.3293 112.255 57.335 112.255C44.3407 112.255 33.8068 122.516 33.8068 135.172C33.8068 147.829 44.3407 158.089 57.335 158.089Z" fill="#116A7D"/>
<path d="M85.4866 174.511C76.2823 174.511 68.8207 167.243 68.8207 158.278C68.8207 149.313 76.2823 142.045 85.4866 142.045C94.6909 142.045 102.152 149.313 102.152 158.278C102.152 167.243 94.6909 174.511 85.4866 174.511Z" fill="#116A7D"/>
<path d="M59.0814 155.504V180.367C64.8643 181.963 70.9095 182.79 77.032 182.79H79.4498C81.0058 182.79 82.5589 182.838 84.1066 182.934V172.178C84.094 172.163 84.0817 172.147 84.0697 172.132C84.0582 172.117 84.047 172.101 84.0361 172.085L76.1547 160.853L78.4328 159.337L84.1066 167.423V153.617H86.8658V159.683L92.8019 154.279L94.6838 156.236L86.8874 163.334L86.8658 163.353V183.155C94.3081 183.889 101.588 185.724 108.414 188.603L111.601 189.946C129.191 197.363 143.488 210.042 152.131 225.888L157 234.816V326H0V159.045C13.7941 159.045 28.0485 163.124 38.9425 170.858C44.0185 174.462 49.6389 177.298 55.5898 179.299V144.336C55.5806 144.328 55.5715 144.32 55.5624 144.312L45.6963 135.33L48.0778 132.853L55.5898 139.692V132.016H59.0814V149.487L66.2614 139.254L69.1442 141.172L59.1707 155.387C59.1423 155.427 59.1125 155.466 59.0814 155.504Z" fill="#212121"/>
</g>
<path opacity="0.24" d="M171.368 298.78L170.352 299.66C169.337 300.53 168.76 301.76 168.76 303.04V314.05C168.76 314.05 209.01 300.31 207.054 268.45L171.368 298.78Z" fill="url(#paint0_linear)"/>
<path d="M172.789 288.44L168 290.045L168.172 297.02C168.268 299.45 170.972 300.99 173.324 299.96C183.926 295.29 209.085 284.09 207.973 259.41L193.801 271.46L172.789 288.44Z" fill="#5095A0"/>
<path d="M168 290.045C169.86 286.685 177.299 273.6 189.932 263.13C193.352 260.3 202.811 253.23 205.996 250.86C206.498 250.48 207.246 250.73 207.385 251.33C208.774 257.44 211.648 283.765 168 290.045Z" fill="#212121"/>
<path d="M163.726 264.32L160.328 262.18C159.986 261.97 159.9 261.53 160.125 261.22L162.177 258.36C162.401 258.04 162.871 257.96 163.203 258.17L165.8 259.8C167.659 260.97 169.059 262.68 169.786 264.67L170.021 265.12L169.359 265.95L167.969 265.84C166.452 265.65 164.998 265.12 163.726 264.32Z" fill="#116A7D"/>
<path d="M206.912 288.196L169.513 264.666L168.851 265.587L206.25 289.117L206.912 288.196Z" fill="#116A7D"/>
<path d="M185.73 269.317C185.753 267.572 184.408 266.142 182.726 266.122C181.043 266.103 179.661 267.502 179.638 269.247C179.615 270.992 180.96 272.422 182.642 272.442C184.325 272.461 185.707 271.062 185.73 269.317Z" fill="#116A7D"/>
<path d="M191.397 280.08C190.745 278.82 189.227 275.83 188.351 274.1C187.945 273.31 187.1 272.8 186.17 272.79L185.583 272.78C184.963 272.77 184.471 272.3 184.482 271.72L184.492 270.73L181.062 270.69L181.051 271.68C181.04 272.26 180.538 272.72 179.918 272.71H179.694C178.668 272.7 177.684 273.09 176.979 273.78L175.365 275.37C174.863 275.86 174.809 276.64 175.29 277.16C175.803 277.72 176.69 277.78 177.278 277.31L177.727 276.95C177.887 276.83 178.123 276.93 178.123 277.12L178.069 280.97C178.037 283.42 180.153 285.44 182.782 285.44H182.921C185.38 285.45 187.389 283.6 187.421 281.29L187.442 279.41C187.442 279.31 187.517 279.21 187.624 279.19C187.731 279.17 187.838 279.21 187.891 279.3C188.073 279.6 188.596 280.48 189.013 281.19C189.334 281.73 190.018 282 190.649 281.79C191.386 281.56 191.739 280.75 191.397 280.08Z" fill="#116A7D"/>
<path d="M190.125 278.25C190.488 277.71 191.311 277.66 191.739 278.16L192.134 278.61C192.391 278.9 192.433 279.31 192.252 279.64L191.322 281.3L190.477 280.06" fill="#116A7D"/>
<path d="M198.292 256.19C198.315 254.445 196.97 253.014 195.288 252.995C193.606 252.976 192.223 254.375 192.201 256.12C192.178 257.865 193.523 259.295 195.205 259.314C196.887 259.334 198.269 257.935 198.292 256.19Z" fill="#116A7D"/>
<path d="M203.954 266.95C203.302 265.69 201.785 262.7 200.908 260.97C200.502 260.18 199.658 259.67 198.728 259.66L198.14 259.65C197.52 259.64 197.029 259.17 197.039 258.59L197.05 257.6L193.619 257.56L193.609 258.55C193.598 259.13 193.096 259.59 192.476 259.58H192.39C191.268 259.57 190.199 259.99 189.43 260.75L187.912 262.24C187.41 262.73 187.356 263.51 187.837 264.03C188.35 264.59 189.237 264.65 189.825 264.18L190.274 263.82C190.434 263.7 190.67 263.8 190.67 263.99L190.616 267.65C190.584 270.1 192.7 272.12 195.329 272.12H195.468C197.927 272.13 199.936 270.28 199.968 267.97L199.989 266.29C199.989 266.19 200.064 266.09 200.171 266.07C200.278 266.05 200.385 266.09 200.438 266.18C200.62 266.48 201.144 267.36 201.56 268.07C201.881 268.61 202.565 268.88 203.196 268.67C203.954 268.42 204.296 267.62 203.954 266.95Z" fill="#116A7D"/>
<path d="M179.395 251.84L175.996 249.7C175.654 249.49 175.568 249.05 175.793 248.74L177.845 245.88C178.069 245.56 178.54 245.48 178.871 245.69L181.468 247.32C183.328 248.49 184.728 250.2 185.454 252.19L185.69 252.64L185.027 253.47L183.638 253.36C182.109 253.16 180.666 252.64 179.395 251.84Z" fill="#116A7D"/>
<path d="M222.574 275.706L185.175 252.175L184.513 253.096L221.912 276.627L222.574 275.706Z" fill="#116A7D"/>
<path d="M203.805 268.3L206.081 265.99C206.487 265.58 206.455 264.95 206.017 264.57C205.579 264.19 204.906 264.22 204.499 264.63L202.223 266.94L203.805 268.3Z" fill="#116A7D"/>
<path d="M227.376 274.899L215.962 274.768L215.919 278.108L227.332 278.239L227.376 274.899Z" fill="#212121"/>
<path d="M214.497 288.019L203.084 287.888L203.04 291.227L214.453 291.359L214.497 288.019Z" fill="#212121"/>
<path d="M112.63 6.76C113.33 6.76 113.9 6.19001 113.9 5.49001C113.9 4.79001 113.33 4.22 112.63 4.22C111.93 4.22 111.36 4.79001 111.36 5.49001C111.36 6.19001 111.93 6.76 112.63 6.76Z" fill="#5095A0"/>
<path d="M171.43 2.54C172.13 2.54 172.7 1.97 172.7 1.27C172.7 0.57 172.13 0 171.43 0C170.73 0 170.16 0.57 170.16 1.27C170.15 1.97 170.72 2.54 171.43 2.54Z" fill="#5095A0"/>
<path d="M31.69 13.11C32.39 13.11 32.96 12.54 32.96 11.84C32.96 11.14 32.39 10.57 31.69 10.57C30.99 10.57 30.42 11.14 30.42 11.84C30.42 12.54 30.99 13.11 31.69 13.11Z" fill="#5095A0"/>
<path d="M36.66 7.3C37.36 7.3 37.93 6.73 37.93 6.03C37.93 5.33 37.36 4.75999 36.66 4.75999C35.96 4.75999 35.39 5.33 35.39 6.03C35.38 6.73 35.95 7.3 36.66 7.3Z" fill="#5095A0"/>
<path d="M259.91 41.27C260.61 41.27 261.18 40.7 261.18 40C261.18 39.3 260.61 38.73 259.91 38.73C259.21 38.73 258.64 39.3 258.64 40C258.64 40.7 259.21 41.27 259.91 41.27Z" fill="#5095A0"/>
<path d="M268.76 38.56C269.46 38.56 270.03 37.99 270.03 37.29C270.03 36.59 269.46 36.02 268.76 36.02C268.06 36.02 267.49 36.59 267.49 37.29C267.48 37.99 268.05 38.56 268.76 38.56Z" fill="#5095A0"/>
<path d="M154.1 30.7C154.8 30.7 155.37 30.13 155.37 29.43C155.37 28.73 154.8 28.16 154.1 28.16C153.4 28.16 152.83 28.73 152.83 29.43C152.83 30.13 153.4 30.7 154.1 30.7Z" fill="#5095A0"/>
<path d="M276.14 14.25C276.84 14.25 277.41 13.68 277.41 12.98C277.41 12.28 276.84 11.71 276.14 11.71C275.44 11.71 274.87 12.28 274.87 12.98C274.87 13.68 275.44 14.25 276.14 14.25Z" fill="#5095A0"/>
<path d="M342.91 19.5C343.61 19.5 344.18 18.93 344.18 18.23C344.18 17.53 343.61 16.96 342.91 16.96C342.21 16.96 341.64 17.53 341.64 18.23C341.64 18.93 342.21 19.5 342.91 19.5Z" fill="#5095A0"/>
<defs>
<linearGradient id="paint0_linear" x1="186.878" y1="289.819" x2="191.434" y2="297.123" gradientUnits="userSpaceOnUse">
<stop stop-color="#116A7D"/>
<stop offset="1" stop-color="#212121"/>
</linearGradient>
</defs>
</svg>
